<svg class="w-full h-full"
     xmlns="http://www.w3.org/2000/svg"
     viewBox="0 0 1378.485 126.765">
    <path d="M6.75,0H60.885V-17.01H25.65V-94.5H6.75ZM99.225,1.755c13.9,0,25.65-6.21,31.32-14.985L116.37-23.9a19.65,19.65,0,0,1-17.145,9.45c-9.18,0-15.39-5.8-17.415-14.04h52.515a37,37,0,0,0,.54-6.48c0-20.25-14.58-36.99-35.64-36.99S62.91-55.215,62.91-34.965,77.49,1.755,99.225,1.755ZM81.81-42.12c2.025-8.37,8.5-14.175,17.145-14.175,8.91,0,15.525,6.345,17.55,14.175ZM173.88,1.755c12.555,0,18.9-5.265,22.68-13.23V0h17.685V-70.2h-18.09v11.07c-3.78-7.56-10.125-12.555-22.275-12.555-19.305,0-34.7,16.605-34.7,36.855S154.575,1.755,173.88,1.755Zm-16.47-36.72c0-10.935,7.83-20.25,19.44-20.25,12.015,0,19.71,9.45,19.71,20.385s-7.695,20.115-19.71,20.115C165.24-14.715,157.41-24.3,157.41-34.965ZM225.045,0H243.27V-35.91c0-11.745,8.1-18.765,18.63-18.765h2.565V-71.82c-12.15-.675-19.3,4.86-21.735,14.985V-70.2H225.045Zm45.5,0h18.225V-38.475c0-12.15,6.885-17.415,14.58-17.415,9.045,0,15.12,5.265,15.12,17.415V0H336.69V-42.93c0-17.685-11.61-28.89-26.73-28.89-10.8,0-17.82,4.05-21.465,11.88V-70.2H270.54ZM392.58,0h17.01l19.17-53.325a90.188,90.188,0,0,0,3.915-15.525,90.188,90.188,0,0,0,3.915,15.525L455.76,0h17.01l31.59-94.5h-21.6L467.64-41.04a120.149,120.149,0,0,0-3.51,16.2,89.426,89.426,0,0,0-4.185-16.2L441.18-94.5H424.17L405.405-41.04a78.606,78.606,0,0,0-3.915,16.2,147.292,147.292,0,0,0-3.78-16.2L382.59-94.5h-21.6ZM508.95,0h18.225V-70.2H508.95Zm-1.89-86.805a10.776,10.776,0,0,0,10.935,10.8,10.612,10.612,0,0,0,10.935-10.8A10.664,10.664,0,0,0,517.995-97.47,10.748,10.748,0,0,0,507.06-86.805ZM564.57,0h9.99V-16.2H567c-3.51,0-5.67-2.025-5.67-6.48v-32h14.85V-70.2H561.33V-86.265l-18.225,1.89V-70.2H533.25v15.525h9.855v32.94C543.105-6.48,550.665,0,564.57,0Zm17.685,0H600.48V-38.475c0-12.15,6.885-17.415,14.58-17.415,9.045,0,15.12,5.265,15.12,17.415V0h18.225V-42.93c0-17.685-11.61-28.89-26.73-28.89-10.53,0-17.415,3.78-21.2,11.34V-98.55H582.255ZM724.68,1.755c16.47,0,28.62-6.345,35.775-14.985l-13.77-11.745c-5.535,6.075-12.42,9.18-21.6,9.18-18.63,0-30.1-14.04-30.1-31.32s11.475-31.59,29.7-31.59a28.032,28.032,0,0,1,21.2,8.91l13.365-11.61c-8.505-10.125-19.17-14.85-34.56-14.85-29.16,0-49.275,22.005-49.275,49.14C675.405-20.115,696.6,1.755,724.68,1.755Zm72.9,0c21.735,0,37.4-16.47,37.4-36.72s-15.66-36.855-37.4-36.855-37.395,16.6-37.395,36.855S775.845,1.755,797.58,1.755Zm-19.17-36.72c0-10.935,7.56-20.25,19.17-20.25s19.17,9.315,19.17,20.25S809.19-14.85,797.58-14.85,778.41-24.03,778.41-34.965ZM843.075,0H861.3V-38.475c0-12.15,6.885-17.415,14.58-17.415,9.045,0,15.12,5.265,15.12,17.415V0h18.225V-38.475c0-13.5,5.8-17.415,14.31-17.415,8.235,0,14.04,5.265,14.04,17.415V0H955.8V-42.93c0-17.685-11.61-28.89-26.73-28.89-12.285,0-19.035,4.725-23.76,13.23-4.59-8.5-12.96-13.23-22.815-13.23-10.8,0-17.82,4.05-21.465,11.88V-70.2H843.075Zm122.85,0H984.15V-38.475c0-12.15,6.885-17.415,14.58-17.415,9.045,0,15.12,5.265,15.12,17.415V0h18.225V-38.475c0-13.5,5.8-17.415,14.31-17.415,8.235,0,14.04,5.265,14.04,17.415V0h18.225V-42.93c0-17.685-11.61-28.89-26.73-28.89-12.285,0-19.035,4.725-23.76,13.23-4.59-8.5-12.96-13.23-22.815-13.23-10.8,0-17.82,4.05-21.465,11.88V-70.2H965.925Zm148.9,1.62c10.935,0,17.28-4.05,20.655-12.15V0h17.685V-70.2h-18.225v38.475c0,12.15-6.885,17.415-14.58,17.415-9.045,0-14.04-5.265-14.04-17.415V-70.2H1088.1v42.93C1088.1-9.585,1099.71,1.62,1114.83,1.62ZM1163.97,0H1182.2V-38.475c0-12.15,6.885-17.415,14.58-17.415,9.045,0,15.12,5.265,15.12,17.415V0h18.225V-42.93c0-17.685-11.61-28.89-26.73-28.89-10.8,0-17.82,4.05-21.465,11.88V-70.2H1163.97Zm76.275,0h18.225V-70.2h-18.225Zm-1.89-86.805a10.776,10.776,0,0,0,10.935,10.8,10.612,10.612,0,0,0,10.935-10.8A10.664,10.664,0,0,0,1249.29-97.47,10.748,10.748,0,0,0,1238.355-86.805ZM1295.865,0h9.99V-16.2h-7.56c-3.51,0-5.67-2.025-5.67-6.48v-32h14.85V-70.2h-14.85V-86.265l-18.225,1.89V-70.2h-9.855v15.525h9.855v32.94C1274.4-6.48,1281.96,0,1295.865,0ZM1323,28.215c16.47,0,25.245-9.585,31.185-23.76l31.05-74.655h-21.6L1350-30.105a75.87,75.87,0,0,0-2.97,11.205,75.87,75.87,0,0,0-2.97-11.205l-13.635-40.1H1308.42l27.81,66.96-.945,2.97c-2.025,6.21-6.48,10.665-13.5,10.665a32.776,32.776,0,0,1-8.235-.945l-2.7,17.415A46.608,46.608,0,0,0,1323,28.215Z"
          transform="translate(-6.75 98.55)"
          fill="currentColor" />
</svg>