<svg xmlns="http://www.w3.org/2000/svg" viewBox="0 0 1920 1080"><defs><style>.cls-5{fill:#a00544}.cls-7{fill:#960842}.cls-9{fill:#332432}.cls-10{fill:#0b0a00}.cls-11{fill:#e88970}.cls-13{fill:#f99370}.cls-15{fill:#3f00a3}.cls-24{fill:none}.cls-24,.cls-33{stroke-miterlimit:10}.cls-23{fill:#070707}.cls-24,.cls-33{stroke:#cc9109}.cls-24{stroke-width:5px}.cls-26{fill:#ea856a}.cls-28{fill:#73139b}.cls-33{fill:#44443c}.cls-34{fill:#cc3244}.cls-38{fill:#6b32ad}.cls-40{fill:#3d1b44}.cls-42{fill:#913cd3}</style></defs><path d="M1503.3 1656.5c53.1-14.2 82-50.4 82-50.4 34.2-43 43.2-111.7 17.1-157.5-28.7-50.3-85.8-39.8-103.6-64-70.2-95.7 439.8-637.6 427-650-4.4-4.2-59.8 63.2-114.5 49.7-29-7.1-34.3-31-73.7-37.4a116 116 0 0 0-68.4 10.7 110.6 110.6 0 0 0-35.2 28.9c-26.1 31.3-164.1 163.1-304.2 169-72 3-132.8-27.5-217.7-71-73.5-37.8-75.8-55.5-123-69.5-108.8-32.2-152.7 45.2-263.3 41C583 850.7 571.5 718.7 388.3 678c-31.8-7.1-152.1-34-249.2 23.6C12.8 776.5-33.3 970.6-11 1106c93 565.5 1454.1 566.5 1514.3 550.5Z" class="fill-[#FBD8C5] dark:opacity-10"/><path d="M859.4 1254.8c-3.1-3.5-10.5-27-30-52.3-42.2-54.2-102.5-78.8-150.4-91.1a475.3 475.3 0 0 0 90.6-21.4c47.6-16.2 66-31 110.5-46.5 33.9-11.9 53.5-14 105.4-22.8 128.7-21.9 193-32.9 234.6-53.3 23.1-11.4 79-38.9 128-96 34.7-40.5 42.4-68.6 82.6-93.9a198.8 198.8 0 0 1 103.9-28.7c111-.5 136.5 94 218.6 96 101.1 2.4 122.8-140 231.8-157.2 107.3-17 221 99.5 272.3 185.4 112 187 68.5 470-72.2 639.5-358 431-1248.7-171-1325.7-257.7Z" style="fill:#311754"/><path d="M1103.5 972c-16 2.2-39.4 6-40 13-.8 10.9 51.2 24.4 83 30 22.2 4 39.8 5.2 56 6 29.6 1.8 48.5.9 81 0 30.3-.6 60.6-.5 91-1 14.9 0 74.1-.8 127.9-1 71.3 0 107-.1 138.9 1 22 1 89.6 3.8 172-3 17-1.3 36.5-3.3 37-8 .6-8.5-66-20.2-70-21-55-9.4-97-8.3-122-8 0 0-20.5.4-156-2-134-2.2-277.3-22-398.8-6Z" style="fill:#7347a5"/><path d="M1182.3 848.3c-8.5 2.5-14 6-25 13.2-9 6-15 9.8-21.6 16.7a88.8 88.8 0 0 0-19 31c-5 13.6-5.8 24.7-6.4 34-1 15.8-1.5 24.1 2.5 32.7 9 19.7 34.3 25.4 38.3 26.3 27.4 6.2 36.1-9.9 73-5 8.2 1.1 12.3 2.5 22.3 2.8a110.5 110.5 0 0 0 40.5-6.2c14.8-5.4 24-8.7 29.7-17.9 9.2-14.7 5-37.3-6-50.4-10.5-12.7-21-8.8-30.8-23.8-6.2-9.4-3.8-13.8-11.5-23.5a71.1 71.1 0 0 0-21-16.4c-13-8-19.7-12.1-30-14.5a70.5 70.5 0 0 0-35 1Z" style="fill:#d00052"/><path d="M1160.7 895.5a8.7 8.7 0 0 0-4.7 1 10.4 10.4 0 0 0-4 3.7 16.6 16.6 0 0 0-2.5 5.9c-.9 3.5-.2 3.8-1.2 8-.4 1.7-.7 2.2-1.2 4.6-.8 3.2-1.2 3.7-1 4.6a5.4 5.4 0 0 0 4.4 3.8c1.9.2 3.2-.8 5.2-1.9 5.9-3.2 8-1.8 10.2-3.7 6.2-5.2 1-24.9-5.2-26ZM1252.4 895.3a8.6 8.6 0 0 1 4.7.9 10.6 10.6 0 0 1 4 3.7 16.6 16.6 0 0 1 2.4 5.9c1 3.5.3 3.8 1.3 8l1.2 4.6c.8 3.2 1.2 3.7 1 4.6a5.4 5.4 0 0 1-4.4 3.7c-1.9.3-3.2-.7-5.2-1.8-6-3.2-8-1.8-10.2-3.7-6.2-5.2-1-24.9 5.2-26ZM1170 958.3c-3.2 0-5.8 2.1-7.5 3.4l-.7.6c-4.4 3.8-8.4 11-8 11.4s4-5.7 8.6-8.6l2.8-1.6c3.3-1.9 3.5-2.2 4.3-2.2 2 0 3 1.7 4.2 1.1a2.1 2.1 0 0 0 1.2-2.2c-.4-1.5-3.2-1.9-5-1.9ZM1161.4 996a48.8 48.8 0 0 0 10.1 1.6s.6 0 1.2 0c7.6 0 17.3-3.7 17-4.3s-8.5 2.2-15.6 1l-4.2-.7c-4-.7-5.1-.8-5.9-1.2-.2 0-.2 0-.4-.3a13.3 13.3 0 0 0-8.3-1.3c-1.5.2-4.6.6-4.7 1.4 0 1.1 4.4 2.2 10.8 3.8ZM1150.5 942.8c-2.8-1.3-6.1-.6-8.2-.2l-.9.2c-5.6 1.5-12.4 6.3-12.2 6.7s6-3.4 11.5-3.9l3.2-.2c3.8-.3 4.1-.5 4.9-.1 1.8.8 1.9 2.8 3.3 2.8a2.1 2.1 0 0 0 2-1.5c.3-1.4-2-3-3.6-3.8ZM1262.2 929.3c2.5-1.9 6-1.8 8-1.8h1c5.8.3 13.4 3.7 13.2 4.1s-6.6-2.1-12-1.5l-3.2.4c-3.8.5-4.1.4-4.8.9-1.6 1.1-1.3 3-2.6 3.4a2.1 2.1 0 0 1-2.3-1c-.6-1.4 1.3-3.4 2.7-4.5ZM1177.2 961.6a9 9 0 0 0-2.2 4.4 19.5 19.5 0 0 0-.6 5.4c0 .5 0 2.3.2 2.3s.5-2 1.3-5.4a23.6 23.6 0 0 1 1.2-4.2c1-2.1 2-3 1.9-3.3s-1 .1-1.8.8ZM1273.7 953.2a9 9 0 0 1 4.8.8 19.4 19.4 0 0 1 4.7 2.7c.5.3 2 1.3 1.8 1.5s-1.8-.8-5-2.2a22.9 22.9 0 0 0-4.2-1.4c-2.3-.5-3.6-.1-3.8-.4s.7-.8 1.7-1Z" class="cls-5"/><path d="M1161.5 895.9a8.6 8.6 0 0 0-4.2-3.9 11.8 11.8 0 0 0-5.3-1.2c-.6 0-2.3 0-2.4.3s2 .8 5.3 2.3a16.8 16.8 0 0 1 4.2 2.3c2 1.6 2.8 3.5 3.2 3.3s-.1-1.8-.8-3.1Z" class="cls-5"/><path d="M1152.6 960.2c.3 1.6 5 2.8 6.8 3 4.4.8 6.2-.7 10.5.4 2.8.6 2.6 1.4 5.6 2.4 5.4 2 10.3 1.2 13.6.7 5.5-1 5.2-2.1 12.4-3.4a71.9 71.9 0 0 1 8.6-1 20 20 0 0 1 8 .4c2.7.8 3.2 2 5.3 3 5.8 3.2 13.2.5 15.4-.3 5.8-2 6.3-4.5 11.8-5.2a47.9 47.9 0 0 1 6.2 0c7.7.2 8 1 10.2.3s4-2.5 8-6.2c3.5-3.4 5.3-5 5-6.2-.7-1.9-6.3-1.8-10.2-1.2a34.2 34.2 0 0 0-15.5 7.1c-14.7 10.8-37-10.3-70.8-6.2-16 2-31.3 9.2-30.9 12.4Z" style="fill:#770a3b"/><path d="M1203.5 846.3c0 .5 4.5 1 12 3.6a77.7 77.7 0 0 1 10.8 4.3c5 2.6 8.1 5 13.2 9.1 7.2 5.8 7.3 7 13.4 11.5 8.1 6.2 8.3 4.4 11.4 7.7 7.3 7.5 3.1 14 10.4 25.1 3.2 4.9 6.8 8 11.3 11.8 9.4 7.9 12 6.4 16.7 12 .7.7 9 10.6 7 23-.8 5.4-3.1 8.9-7.7 15.1a82.8 82.8 0 0 1-19.2 18.9 72.5 72.5 0 0 1-23.2 10.8 21.6 21.6 0 0 0-3 .8 37.5 37.5 0 0 0 4.4-.4l3.8-.4 4-.6c3.5-.7 6.3-1.2 8.7-1.8a131.7 131.7 0 0 0 30.2-11.8 29.9 29.9 0 0 0 9-8.8c2.8-4.3 3.6-8.3 4.2-11.8a46.6 46.6 0 0 0 .2-15.3 48.3 48.3 0 0 0-5.4-16.1 38 38 0 0 0-9-11.6 34 34 0 0 0-11.7-7.1 18.8 18.8 0 0 1-6-2.7 27 27 0 0 1-4.3-4.1l-5-5.5c-1.6-2.2-2-3.5-5.1-11.5a101.5 101.5 0 0 0-4-9.6c-1.1-2-3-4.5-8.4-8.9-3.7-3-6.8-5-16-10.7-8.4-5.1-12.6-7.7-16.2-9.4a64.8 64.8 0 0 0-15.1-5.2c-5.7-1.3-11.3-1-11.4-.4ZM1147 945.3c-4-.5-5.7.2-6.8 1.3a5.4 5.4 0 0 0-1.2 5c.3 1 .9 2 5.6 5.2a44.8 44.8 0 0 0 6.5 4 34.2 34.2 0 0 0 9.3 2.5 30.2 30.2 0 0 0 8 .6c3.8-.3 6.5-.6 7-1.9 1.8-4-17.2-15-28.3-16.7Z" class="cls-5"/><path d="M1283.7 937.3c4-.6 5.8.2 6.8 1.2a5.4 5.4 0 0 1 1.2 5c-.2 1-.8 2-5.6 5.3a44.6 44.6 0 0 1-6.4 4 34.4 34.4 0 0 1-9.3 2.5 30.1 30.1 0 0 1-8 .6c-4-.3-6.6-.6-7.1-1.9-1.8-4 17.2-15 28.4-16.7Z" class="cls-5"/><path d="M1183 961c-1.7.7-5 2-5 4 0 1.7 2.8 3 3 3 3 1.4 5.9.7 10.5-.6a15.8 15.8 0 0 0 6.3-2.9c1.5-1.2 2.7-2.2 2.5-3.1-.4-2.4-9.8-3.4-17.3-.4ZM1225.7 960c-5 2.2-5.2 3.3-5.2 3.7 0 2.1 6.4 3.6 8.5 4a32.5 32.5 0 0 0 8.1.9c5-.2 7.7-.2 9.3-2.2s2.1-5.4.6-7.5c-4-5.8-19.8.6-21.3 1.2Z" class="cls-7"/><path d="M1174.3 918.7a163 163 0 0 0-16.7 3.5c-3.6.9-6.3 1.6-9.1 3.8a18.6 18.6 0 0 0-5.8 7.8 17.3 17.3 0 0 0-1 10c1.6 6.8 7.5 10.4 12.4 13.3a42.6 42.6 0 0 0 11.1 4.5c7 1.8 11.7 3.6 15.3 1.3 2-1.3 2-2.6 4.5-3.7 1.6-.7 3.2-1 7.2-.7s5.9.6 9.7 1c7.7 1 7.3.3 10.1 1 4.2 1.2 4.6 2.3 9 3.3a20.8 20.8 0 0 0 7.3.7c4-.5 5-2 9.3-3.3 3.7-1.2 4.3-.4 9.3-1 2.7-.4 6.6-1.8 14.2-4.4 8.3-2.8 10-3.6 11.7-4.7 3.6-2.2 6.4-4 7.6-7.4a12.4 12.4 0 0 0-.6-9.1 16.6 16.6 0 0 0-6.6-7 28.7 28.7 0 0 0-6-3.1 36 36 0 0 0-10.9-2.7c-14.6.1-50.6-6.4-82-3Z" style="fill:#472f45"/><path d="M1165 923c-3.1 0-5.9 0-8.7 1.5a11.3 11.3 0 0 0-4.5 4.8c-.6 1-.8 2.3-.6 2.4s1.2-2 3.3-2.8a6.8 6.8 0 0 1 4.5.2c2 .6 2.1 1.2 5 2.6a45.6 45.6 0 0 0 4.8 1.9c2.3.8 3.5 1.3 4.9 1.6 4.4 1.2 7 1.9 8.7.7 2-1.5 2.5-5.7 1-8.5-2-3.5-7.5-3.8-18.4-4.3ZM1250.1 924.7c2.8-.1 6.2-.6 8.7 1.5 1 .9 2 2.3 1.6 3s-1.4.5-4.3 1.5a10.1 10.1 0 0 0-1.2.5c-1 .5-1.6 1.1-3.8 2.2a46.6 46.6 0 0 1-4.7 1.8l-5 1.7c-4.4 1.2-7 1.9-8.7.6-2-1.5-2.5-5.7-1-8.4 2-3.6 7.5-3.9 18.4-4.4Z" class="cls-9"/><path d="M1179.2 962a29.3 29.3 0 0 0 5.2 1.4c4.2.7 6.3 1 7.4 1a46.7 46.7 0 0 0 6.6 0 48 48 0 0 0 8.2-1.4c3.9-1 6.4-1.6 6.4-2.3 0-.5-1.3-.7-7.6-2l-8.2-1.7c-3.4-.5-6-.7-7.7-.8a43.3 43.3 0 0 0-7 .2c-2.2.3-3.6.6-4.5 1.7-.2.2-1.2 1.4-.8 2.4.2.8 1 1.1 2 1.5ZM1221 961.8c.1-1.3 1.8-2.2 3.6-3a17.6 17.6 0 0 1 7.6-2c1.7 0 1 .3 6 .7a19.7 19.7 0 0 1 4.1.6c1.7.5 3.3 1 3.5 1.9.2 1.1-1.7 2.4-2.5 2.9s-1.4.7-5.1 1.6l-4.1 1a24.9 24.9 0 0 1-4.8.8 10.4 10.4 0 0 1-5.1-1.2c-1-.5-3.2-1.7-3.2-3.3Z" class="cls-10"/><path d="M1200.5 853.4c1.8-3.8 12.4-3.1 13.7-.8.5.9 0 1.3 0 4.1s.6 3.8 1 6.8a21.5 21.5 0 0 1 0 8.7c-.5 2-1.3 5.3-4.2 7-3.5 2-8.3.5-11.2-1.9a11.6 11.6 0 0 1-2.7-13.2c1.2-2.2 3-3 3.5-5.8v-2.6a19.3 19.3 0 0 1 0-2.3Z" class="cls-11"/><path d="m1200.5 855.7.2 1.2a14.6 14.6 0 0 1-.3 1.8 69.5 69.5 0 0 0-.8 4.3l-.3 2.4c-.1 1-.1 1.5.1 1.7a1.4 1.4 0 0 0 1.2.2c8.5-2 11.3-5.9 11.3-5.9a21.6 21.6 0 0 0 2-4 3.8 3.8 0 0 0 .3-1.3 2.2 2.2 0 0 0 0-.5l-5.3 1-7 .2Z" style="fill:#dd7a5f"/><path d="M1195 845.2c-1.2-.7-1.6-.2-2.9-.9-2.5-1.4-4-5.4-2.6-7.6a3.4 3.4 0 0 1 2.9-1.6c2 .1 2.8 2.7 3.5 2.4.8-.3-.8-3.6.6-6 1.1-1.7 3.5-2 8.3-2.7 3-.4 5-.6 7.4 0 1.6.5 4.5 1.2 5.3 3.4s-.7 4.5-.3 4.7 1.4-2.8 3.4-3.1a3 3 0 0 1 2.4.8 3.1 3.1 0 0 1 .9 1.4 6.8 6.8 0 0 1-.5 4.7 10.6 10.6 0 0 1-1.7 2.6c-.8 1-1.2 1.6-1.9 1.8a4.7 4.7 0 0 0-1.4.6 4.1 4.1 0 0 0-.9 1c-.7 1.5-.2 2.7-.4 4a9.4 9.4 0 0 1-2.9 5.2 9.8 9.8 0 0 1-4.5 2.8 8.9 8.9 0 0 1-6.2-.4c-2.3-1-3.3-3.1-4.5-5.3-2.2-4.1-1.7-6.6-4-7.8Z" class="cls-13"/><path d="M1196.3 846.4c-6.7-6-8.6-15.4-5-22.4 4.8-9.4 17-9.2 24.9-7.2 1.8.4 2.7 2.7 3.6 4.5a2.7 2.7 0 0 1 1.8.5 22 22 0 0 1-4.3 25.6 56.1 56.1 0 0 1 1.1-11.2c-.4.5-.9 1.4-1.3 1.4-5.4-3.6-11.3.4-16.7-2.3a6.6 6.6 0 0 1-2.3-2.7 107.9 107.9 0 0 0-1.7 12.1l-.1 1.7Z"/><path d="M1200.3 856c-1-.8-3 .5-7.2 3a98 98 0 0 0-11.8 8.3 126.3 126.3 0 0 0-10.7 10c-3.8 3.9-5.9 6-8.2 9.6a50.4 50.4 0 0 0-5 9.7 58.7 58.7 0 0 0-2.9 11.6c-.9 4.9-1.3 7.4-.8 9.2 1 4 4.3 6.4 7.6 8.9a42 42 0 0 0 9.9 5.1 70.7 70.7 0 0 0 14.8 4.4c11 1.8 13.3-1.2 27.6-1.3 13.3 0 13 2.6 21.5 1.3 4.8-.8 16.8-2.6 22.3-12.2 3.2-5.7 2.7-11.7 2.4-14.4-.4-5.1-2.8-9.5-7.4-18.2-3.7-7-5.6-10.4-9.3-14.6-3.5-4-6.6-6.3-11.7-10.3a86.6 86.6 0 0 0-12-7.4c-3.2-1.8-5-2.8-5.8-2-1 .8 1 3.3 1.6 8.4.3 2 .7 5.8-1.2 9.5-.2.4-3.2 6-7 5.5-3.5-.3-5.3-5.4-6-7.2-2-5.3-1.1-11.4-1-12.2.5-2.7 1-4.1.3-4.7Z" style="fill:#8647ea"/><path d="m1230.5 904.1 4-17.5s1-2.7 5.3 3.3 6.8 7.2 6 10.5a1.5 1.5 0 0 1-.2.5c-2 2.8-15 3.2-15 3.2ZM1185 903.5l-4-17.5s-1-2.7-5.4 3.3-6.8 7.2-6 10.5a1.4 1.4 0 0 0 .3.5c2 2.8 15 3.2 15 3.2Z" class="cls-15"/><path d="M1176.4 896.4c.8-.8 1.7-.9 8.2-.6 6.3.2 7.4.4 10.6.4l7.6-.2c4 0 4.3.3 9 .4h10.9c2.7 0 5.5.2 8.2 0a11.6 11.6 0 0 1 3.6.2c1.5.3 2.6.6 3.4 1.5s.5 2.1-.3 7.2l-.6 4.3c-.5 3.7-.4 4.4-.8 7.8-.6 5.2-1 5.3-2 11.8l-.6 5c-.2 3.7 0 5.4-1.2 7.2a6 6 0 0 1-2.4 1.9c-1.7.7-3 .3-5.2.2-2.4-.2-2.2 0-6.2.2-5 0-5.6-.3-11-.4-4-.1-7.2 0-9.5.2l-9.7.4c-3.5.2-5 .4-6.5-.6-.8-.6-1.7-1.5-2.6-4.6a34.8 34.8 0 0 1-1-9.7c0-2.8-.1-.6-.8-10.7l-.9-12.6c-.7-6-1.5-8-.2-9.3Z" style="fill:#6666ad"/><path d="M1177.3 898.5c.8-.7 1.7-.8 8-.6 6.2.3 7.2.4 10.4.4 3.7 0 3.6-.2 7.4-.2 4 0 4.2.3 8.8.4h10.5c2.7 0 5.4.3 8 0a11 11 0 0 1 3.6.2c1.4.4 2.5.6 3.2 1.5s.6 2.1-.2 7.2l-.6 4.3c-.5 3.7-.4 4.5-.8 7.9-.6 5.1-1 5.2-1.9 11.7l-.6 5c-.2 3.7 0 5.4-1.2 7.2a5.8 5.8 0 0 1-2.3 1.8c-1.6.8-3 .4-5.1.2-2.3-.1-2.1.2-6 .3-4.9 0-5.5-.4-10.7-.5-4 0-7.1.1-9.3.3l-9.5.4c-3.5.2-5 .4-6.4-.7-.8-.5-1.7-1.4-2.5-4.5a35.5 35.5 0 0 1-1-9.7c0-2.9-.1-.6-.8-10.7l-.8-12.6c-.7-6-1.5-7.9-.2-9.3Z" style="fill:#8b86c7"/><path d="M1401 887.6h67.3V1006H1401z" style="fill:#cea2f4"/><path d="M1537.6 844.7h67.3V1006h-67.3z" style="fill:#b384dd"/><path d="M1674.4 800.5h67.3v204.8h-67.3z" style="fill:#9865c7"/><g id="arrow"><path d="M1299.2 845.6a81.2 81.2 0 0 1 27.9-22.1 80.1 80.1 0 0 1 40.5-7.7 66 66 0 0 1 31.8 9.6c21 13.6 24.5 36.2 31.8 34.7 3.8-.8 3.3-7.3 9.6-21.2a127.3 127.3 0 0 1 16.4-26c7.9-9.6 15.5-18.9 28.9-24.1a50 50 0 0 1 29.9-2.9c26.1 6.5 35.5 37.6 44.3 34.7 3.2-1 1.4-6.2 5.8-19.3a102 102 0 0 1 11.5-23.1c5.3-8.4 10.3-16.5 19.3-24 8.5-7.3 16.9-14.4 27-14.5 22.8-.3 36.3 35 47.2 30.8 3.8-1.5 2.2-5.7 9.7-19.3a112 112 0 0 1 14.4-20.2 115.4 115.4 0 0 1 18.3-16.4 144.4 144.4 0 0 1 26-15.4" style="stroke-miterlimit:10;stroke-linecap:round;stroke-width:8px;stroke:#e779bd;stroke-dasharray:0 20 5;fill:none"/><path d="m1718.1 699.1 24.8-2.2-10.2 22" style="stroke:#ff2ebb;stroke-miterlimit:10;stroke-linecap:round;stroke-width:8px;fill:none"/></g><g id="girl_head" data-name="girl head"><path d="M1342.4 829.2c-1-.8-2.4-1.1-5.3-1.7-3.4-.6-5.1-1-6.1-.2s-1.4 2.8-.7 6.8a51.9 51.9 0 0 0 4.8 15c3.7 7.1 6.2 12.1 9 11.8 2.4-.3 4.3-4 4.6-7 .2-1.4 0-2-1-6l-3.1-11.6c-1-4.4-.7-5.8-2.2-7ZM1418.2 873.6c-1.2.5-2 1.8-3.6 4.2-2 3-3 4.4-2.6 5.6.4 1.4 2 2.3 6 3.2a52 52 0 0 0 15.6 1.4c8-.6 13.7-1 14.5-3.7.6-2.2-2.1-5.5-4.7-7-1.2-.6-2-.7-6-1.3l-11.8-1.7c-4.4-.9-5.6-1.6-7.4-.7Z" class="cls-23"/><path d="M1347.2 839.8v-.2c-1.5-.3-3.4-.8-4.8-.2s-2.7 2-4.2 1.5M1433.4 873.6a5 5 0 0 0-1 3.7c0 1 .5 2 .5 3a2.2 2.2 0 0 1-1.4 2.3" class="cls-24"/><path d="M1355.8 828.1c-1.8-.7-2.4.6-7.2.7-3.5 0-5.3-.7-6.2.4-.5.6-.5 1.4 0 4 1.6 8.7 2.6 9.5 3.3 9.8s1.2.4 3.5 0c6.1-.8 9.2-1.2 10.1-2.4 2.8-3.3.3-11-3.5-12.5ZM1424.4 861.3c-1.5 1.3-.4 2.4-2.4 6.8-1.4 3.2-2.8 4.5-2.1 5.8.4.8 1.2 1 4 1.8 9.3 2.6 10.5 2 11.1 1.5s.8-.9 1.5-3.2c1.7-5.9 2.5-8.9 1.8-10.2-2.2-4-10.9-5.3-14-2.5Z" class="cls-13"/><path d="m1397.5 768.3-2 2.9a44.7 44.7 0 0 0-2.3 4.5 46.4 46.4 0 0 0-1.7 4.5c-1 2.7-1.4 4.4-2.6 8.6l-2.3 7.4a30.2 30.2 0 0 1-2.9 5.9 29.8 29.8 0 0 1-4.8 5.5 52.4 52.4 0 0 1-7.6 6 69 69 0 0 1-5.6 3.2c-1.3.6-2.6 1.4-4.5 2.2-3.9 1.7-5.8 2.6-7.7 2.8s-3.3 0-4 1c-.3.4-.3 1 0 3.3a37.9 37.9 0 0 0 .7 4.6 34.5 34.5 0 0 0 2.8 6.4 27.2 27.2 0 0 0 3 5c.4.5.9 2 2 2a4 4 0 0 0 1 0l1.8-.4 3.3-.6 3.7-1 3.4-1 4-1.4c1.3-.5 2.4-.8 3.7-1.4l3.3-1.5c2.8-1.4 4.3-2 5.2-2.6l3.5-2a69.4 69.4 0 0 0 7-5c1.5-1.2 2.5-2.1 3.3-3a65.7 65.7 0 0 0 11.5-14.3 49.4 49.4 0 0 0 2.6-4.9c.7-1.5.6-1.6 1.3-3.4a19.9 19.9 0 0 0 1-2.4c.4-1.1 0-1.7.6-2.4 0 0 .3-.5.5-.4s.2.6.2.7l.3 4.2.1 3.6.1 5.2.1 5.8v9.7l-.5 6.5c-.2 2.2-.4 3-1.4 10l-1.2 7.8a57.4 57.4 0 0 1-2 8.1c-.6 1.8-2 4.3-1.1 5l.7.3a16.1 16.1 0 0 1 1.9.7 25.3 25.3 0 0 0 3.3 1.2 84.8 84.8 0 0 0 16 2.5c.4 0 1.6 0 4.4-.3 5.2-.5 6.1-.9 6.5-1.6a15 15 0 0 0 .4-1.6l.5-3.1.6-4 1-4.8c.8-3.2 1-5.8 1.4-11.5 1-10.1 1.1-8.5 1.3-12.5s0-7.2-.3-13.8l-.7-9.8c-.2-2.4-.5-4.3-.7-5.4l-.6-4.2-1.3-5.5-1-4.8a139.5 139.5 0 0 0-2.6-10.3c-1.2-3.7-40.8-5.9-46.6-6.2Z" style="fill:#ce287f"/><path d="M1426 720.5a8 8 0 0 0-.4 2.4c0 1.7 0 2.6-.5 2.9h-1c-.6 0-2.1 0-2.2.5-.1.3.4.7.8 1.1 2.3 1.7 3.4 2 4.8 3s1.2 1.7 2.4 2.3a5.8 5.8 0 0 0 4.6.3 4.5 4.5 0 0 0 2.1-1.7 3.6 3.6 0 0 0 .7-2.7c0-.3-.2-1.4-1-1.7-.6-.3-1.1 0-1.4-.3s0-.8 0-1a7.8 7.8 0 0 0 .1-3.8c-.7-2.4-7.9-3.4-9-1.3Z" class="cls-11"/><path d="m1504 726.4-1 1.3-1.2 1.3-1.2 1.5a19 19 0 0 1-1.8 1.9 13.2 13.2 0 0 1-2 1.4c-1.8 1.1-2.9 1-3.3 2l-.3 1a9.8 9.8 0 0 1-.7 1.7l-1.1 1.9-1.2 2-1.5 2.2-1.4 1.7a27.7 27.7 0 0 1-2.6 2.5 33.3 33.3 0 0 1-3 2.4 25.4 25.4 0 0 1-3 1.8 22.1 22.1 0 0 1-4.4 1.7 33.5 33.5 0 0 1-7.3 1.3 36.8 36.8 0 0 1-5.6-.2 30.6 30.6 0 0 1-6.9-1.4l-3.8-1.4-2.7-1.2c-2.2-1-2.8-1.2-3.3-2a2.4 2.4 0 0 1-.4-1.9 3.5 3.5 0 0 1 .6-1l1-1.2c.6-1 1-1 2.8-2.1l1.6-1a13.4 13.4 0 0 1 2.7-1c2.2-.7 2.6-1 3-.8s.2.5.8 1a7.5 7.5 0 0 0 1 .5l1.3 1a9.7 9.7 0 0 0 1.5.6 20 20 0 0 0 2 .8 15.9 15.9 0 0 0 2 .6h.2l1.6.2 3.3.2a13 13 0 0 0 4.6-1 24.4 24.4 0 0 0 3.8-1.9 31.7 31.7 0 0 0 5.7-4l1.8-1.9c2-2 1.5-2 2.5-2.9a2 2 0 0 0 .8-1 2.4 2.4 0 0 0-.2-1.2 14.2 14.2 0 0 1 0-2.3v-2c0-.7-.2-1 0-1.5s.7-.6 1-.5.5.8.6 1.7c.2 1 0 1.6.3 1.7s.2 0 1-.8a13.7 13.7 0 0 0 1-1.2 9 9 0 0 0 .6-1.1 10.2 10.2 0 0 0 .7-2.3 19.8 19.8 0 0 0 .5-2.3 3 3 0 0 1 .4-1.6c.1-.1.4-.5.8-.5.5 0 .7 1 .7 1 .1.7 0 1-.3 2.2a17 17 0 0 0-.2 1.7v1.5l1-1.7 1-1.8 1-1.6c.1-.3.2-.6.5-.7a.8.8 0 0 1 1 .1c.2.3 0 .8 0 1.3a6.8 6.8 0 0 1-.5 1l-.6 1.4-.7 1.2c-.6 1.2-1 1.8-.9 1.9s.8-.6 1.3-1.2a12.3 12.3 0 0 0 1-1.4l1.2-2a1.4 1.4 0 0 1 .7-.7.9.9 0 0 1 1 .2s.2.3-.1 1.2a8.3 8.3 0 0 1-.8 1.5l-.9 1.5-1.1 1.7c-.4.5-.6.7-.5.8a7.3 7.3 0 0 0 1.7-1.5l1.8-1.8c.4-.3.7-.6 1-.5a.7.7 0 0 1 .5.6c.3.3.2.6-.4 1.4Z" class="cls-26"/><path d="M1422.4 725.4a3.8 3.8 0 0 1 1.5.8l1.6 1.2 1.3 1 1.2 1.3a8.8 8.8 0 0 0 1.4 1.4 5.6 5.6 0 0 0 2 .9 3.5 3.5 0 0 0 2.5-.1 2.9 2.9 0 0 0 1-1 4 4 0 0 0 .5-1.2l.2-1.3a4.4 4.4 0 0 0 .1-1.3 1.7 1.7 0 0 1 0-.4v-.2h.4l.6.3.4.1a2.4 2.4 0 0 0 .3 0 7.7 7.7 0 0 0 1 .3 11.3 11.3 0 0 1 2.4.8 18.8 18.8 0 0 1 3.5 2 36.7 36.7 0 0 1 3.5 3.2l2.9 3a27.9 27.9 0 0 0 3.2 2.3 5 5 0 0 1 1.5 1.3c.3.3.7 1 .5 1.3s-.4.2-1 .4a5.8 5.8 0 0 0-2.2 1.4 7.5 7.5 0 0 0-1 1 9.5 9.5 0 0 0-1.3 2.8c-.9 2-3.2 1.1-5 3-.9 1-.3 1.3-1.5 7a30.9 30.9 0 0 0-1 5.2 11.6 11.6 0 0 0 .3 4.2c.4 1.4.9 2 1.4 4a8.4 8.4 0 0 1 .3 2.3 3.3 3.3 0 0 1-.7 2.5c-.3.3-.6.3-1.6.5l-2.7.7a29.3 29.3 0 0 1-4.2.4l-4.4.2a62.3 62.3 0 0 1-8.2-.4l-6.8-.9c-2.2-.3-4-.6-6.5-1.2-2.7-.7-2.6-.9-5.8-1.8-5.2-1.4-8.2-1.7-8.3-2.8 0-.4.3-.4.8-1.4a9 9 0 0 0 .9-3.2l.6-3.6a71.5 71.5 0 0 1 1.9-8.7l1.4-6a44 44 0 0 1 2.4-6.2 32.9 32.9 0 0 1 2.8-4.9l3-3.7c1.6-2 2.4-3.1 2.7-3.3 1.6-1.2 3.3-1.6 6.5-2.4l2-.4a3.8 3.8 0 0 1 1.7-.4Z" style="fill:#911bbc"/><path d="M1412.4 728a8.5 8.5 0 0 0-3 3.7 7.8 7.8 0 0 0-1 2.5 7 7 0 0 0 .8 3.7 13.3 13.3 0 0 0 2 3.3l2.3 2.5 3.5 3.5a23.8 23.8 0 0 0 2.6 2.3 20.2 20.2 0 0 0 3.3 1.8c1.8.8 2.2.8 2.5.6s.1-.8.2-1.5c.2-2 2-3.3 3.5-4.4a12 12 0 0 1 2.6-1.6c2.5-1 4-.6 4.3-1.5.3-.5-.2-1.3-1-2.7a15.6 15.6 0 0 0-2-2.3c-1-1.1-1.2-1.1-2.4-2.3a20.6 20.6 0 0 1-2.2-2.5c-1-1.4-.8-1.5-1.6-2.5a9.8 9.8 0 0 0-3-2.4 12 12 0 0 0-3.3-1.1 12.1 12.1 0 0 0-4.2-.3 8.8 8.8 0 0 0-3.9 1.3ZM1436.6 726.7l.2.2c.6.4.7 1 1.2 2l1.8 3 1.5 2.8a22 22 0 0 0 1.8 2.9 11.5 11.5 0 0 0 .8 1l.5.5a20.4 20.4 0 0 1 1.8 2.8 11 11 0 0 1 .7 1.5l.2.5.1.5c.3.9.1 1.2.4 1.5s.6.1 1.6 0a2.8 2.8 0 0 0 1.5-.5 1.7 1.7 0 0 0 .3-.4 11 11 0 0 1 1.5-2 7 7 0 0 1 1.6-1.3c1-.6 1.6-.6 1.8-1.1a1.4 1.4 0 0 0 0-1c-.1-.2-.3-.7-1.4-1.5-.8-.6-1-.5-1.8-1l-1.6-1.2-1.7-1.4a23.3 23.3 0 0 1-1.6-1.7l-1.6-1.8a13.7 13.7 0 0 0-2.4-1.8 20.2 20.2 0 0 0-2-1.1 17.9 17.9 0 0 0-2.4-1 7.4 7.4 0 0 0-2.8-.4Z" class="cls-28"/><path d="M1434.7 699.6c-.9.8.4 2.4-.6 4.7-.7 1.6-2 2.4-4.6 3.9s-3.8 2.2-5.3 1.8c-1.7-.5-2-2-3.4-2s-2.4 2-2.8 2.5a3.5 3.5 0 0 0-.5 3c.3.8 1 .6 1.7 1.6a7.1 7.1 0 0 1 1 2.4s-.3-.7 0-1 .7.1.8.1c1.2.2 1.3 2.6 2.7 3.8a12.9 12.9 0 0 0 4.2 3 11.4 11.4 0 0 0 5.4.5 19.6 19.6 0 0 0 5-1.2 17.5 17.5 0 0 0 4.8-2.3 7.8 7.8 0 0 0 2.7-2.6 6 6 0 0 0 .8-2.8c0-2.2-1.4-3-2.6-5.8-1.2-2.6-.3-3-1.3-4.9-1.9-3.6-6.6-5.8-8-4.7Z" class="cls-13"/><path d="M1417.1 705.5a12.7 12.7 0 0 1 2.4-4.3 12.9 12.9 0 0 1 3.8-3c1.3-.6 4.2-2.2 7.3-1.4a20.3 20.3 0 0 0 2.6.9c1.4.2 1.8 0 3.5.3a10.3 10.3 0 0 1 3.1.7 9.1 9.1 0 0 1 3 2.3 12 12 0 0 1 2.3 3.4 12.7 12.7 0 0 1 .8 3.2c.5 2.5.8 4 .3 4.2s-2.2-1.2-3-3c-.4-1.3-.1-1.7-.7-3.4a7.4 7.4 0 0 0-1.6-2.7c-1-1-1.5-.8-2.9-1.8a.4.4 0 0 0-.3-.1c-.4 0 0 1.2-.3 2.2-.1.8-.7 1.4-1.7 2.7a14.1 14.1 0 0 1-2.6 2.6 17 17 0 0 1-3 1.7c-4.8 2.4-5.5 2.2-5.8 2-.6-.4-.3-1-1-1.7a3.4 3.4 0 0 0-3.7-.7 3.1 3.1 0 0 0-1.8 2.1 3 3 0 0 0 3.7 3.4.3.3 0 0 1 .2 0c.7.1.5 2.4 1.7 4.5.9 1.5 1.7 1.4 2.2 2.7a5 5 0 0 1-.3 3.2c-2.4 7.3-1.6 7.7-3.2 9.4-.6.8-2.4 2.8-4.8 2.9-2 0-2.3-1.2-4.6-1.6-3.4-.5-4.7 1.9-7.4 1.2a6.5 6.5 0 0 1-4-4.2c-1.9-5.7 5.1-12.7 5.5-13a30 30 0 0 0 5.3-5.3c.6-.8 1-1.7 2.4-3.5a15 15 0 0 0 1.4-2.1 16 16 0 0 0 1.2-3.8Z" style="fill:#3f0c08"/></g><path id="girl_hand" d="m1483 727.4-1 1.3-1.3 1.3-1.2 1.5a19 19 0 0 1-1.8 2 12.6 12.6 0 0 1-2 1.3c-1.8 1.1-2.8 1-3.3 2l-.2 1a10 10 0 0 1-.7 1.7l-1.2 2-1.1 2a24.5 24.5 0 0 1-1.5 2c-.7 1-1.3 1.6-1.5 1.8a28 28 0 0 1-2.6 2.5 33.3 33.3 0 0 1-3 2.4 24.5 24.5 0 0 1-3 1.8 22.1 22.1 0 0 1-4.4 1.7 33.5 33.5 0 0 1-7.2 1.3 36.8 36.8 0 0 1-5.7-.1 30.7 30.7 0 0 1-6.8-1.4l-3.8-1.5-2.7-1.2c-2.3-1-2.8-1.2-3.3-2a2.4 2.4 0 0 1-.4-1.8 3.5 3.5 0 0 1 .6-1l.9-1.4c.7-.8 1-.9 2.9-2 1.3-.9 1.3-1 1.6-1a13.4 13.4 0 0 1 2.6-1c2.3-.8 2.7-1 3-.8s.3.5.8 1a5.7 5.7 0 0 0 1 .5l1.4 1a9 9 0 0 0 1.5.6 20 20 0 0 0 2 .8 15.9 15.9 0 0 0 2 .6h.2l1.6.2 3.3.2a13 13 0 0 0 4.6-1 24 24 0 0 0 3.8-1.9 30.4 30.4 0 0 0 3-2 32 32 0 0 0 2.7-2l1.8-1.9c2-2 1.4-2 2.4-3a2 2 0 0 0 .8-1 2.4 2.4 0 0 0-.1-1 17.3 17.3 0 0 1 0-2.4v-2c0-.7-.2-1 0-1.5s.7-.6 1-.5.5.8.6 1.7c.2 1 0 1.6.3 1.7s.2 0 .9-.8a13.7 13.7 0 0 0 1-1.2 7 7 0 0 0 .7-1.1 10.2 10.2 0 0 0 .7-2.3 20.2 20.2 0 0 0 .5-2.3 3 3 0 0 1 .4-1.6c.1-.1.5-.5.8-.5s.7 1 .7 1c.2.7 0 .9-.2 2.2a16.9 16.9 0 0 0-.1 1.7v1.5l1-1.7 1-1.9 1-1.5c0-.3.2-.6.4-.7a.8.8 0 0 1 1 0c.2.3.1.9 0 1.4a5.8 5.8 0 0 1-.5 1l-.6 1.3-.6 1.3-1 1.8s.9-.6 1.3-1.2a11 11 0 0 0 1-1.3s.6-1 1.3-2a1.4 1.4 0 0 1 .7-.7.9.9 0 0 1 1 .3s.1.2-.2 1.1a8.3 8.3 0 0 1-.7 1.5l-.9 1.5-1.1 1.7-.5.8a7.6 7.6 0 0 0 1.7-1.5l1.8-1.8c.4-.3.7-.6 1-.4a.7.7 0 0 1 .4.5c.2.4 0 .6-.6 1.4Z" class="cls-13" data-name="girl hand"/><g id="bulb_glow" data-name="bulb glow"><path d="M1482.2 672.1c-1.1 0-9.4.2-14.8 7-6 7.6-5.8 19.7-1 23.8 3.2 2.7 10 3.2 11.4 6.6l.9 2.4c.8 2.7.5 3.2 1 3.8 1 1.1 3.6 0 7.6-1.5 4.3-1.8 3.6-2.1 6.7-3.2 1.9-.6 3.3-.8 3.5-1.7.1-.7-.5-1.5-1.7-3.2s-1.8-1.8-2-2.5c-.5-1.7 1.1-3.3 2.2-5.1 2-3.3 1.7-6.9 1.6-10-.1-1.6-.5-9.7-6.6-14a14.8 14.8 0 0 0-8.8-2.4Z" style="fill:#e5e553"/><path d="M1486 720.1a35.6 35.6 0 0 0-3.2-12c-1.8-3.7-2.6-3.7-4.7-8.2-1.8-4-2-5.8-4.2-7.6-.5-.5-3-2.5-5.6-1.7-1.1.3-2.8 1.2-2.9 2.5-.2 2 2.8 3.8 4.8 4.5 3.8 1.3 7.3-.4 8.3-.9 1.7-.8 5.1-2.4 6-6 .5-1.9.6-5.4-1.8-7a4.7 4.7 0 0 0-6.1 1c-1.7 2.2 0 5.4.2 5.6 1.8 3.2 6 4 9.1 3.1a8.7 8.7 0 0 0 3.7-2c2.1-2 3.8-5.7 2.6-8 0-.2-.9-1.7-2-1.7-1.4 0-2.5 2-2.9 2.7-3.3 6.4 1.8 18 2.6 20a50.4 50.4 0 0 0 7.2 11.5" style="fill:#e5e553;stroke:#cc9109;stroke-miterlimit:10"/><path d="M1479.4 715.1c-.3.6 0 1.8.3 4.2.6 3.5 1 5.3 2 6.4 1.4 1.3 3.2 1.4 4.7 1.4 2 .1 3.6-.4 7.9-2 5.4-2.2 6.5-1.7 7.2-3 .3-.8-.1-2.8-1-6.9-.6-2.6-1-4-2.3-5.2-.6-.7-1-1.2-1.7-1.3-1-.2-1.8.7-2.7 1.4s-2.3 1.2-5.1 2.3c-5.5 2.1-8.3.8-9.3 2.7Z" style="fill:#44443c"/><path d="m1464 705.2-11.3 4.5M1461 696.4l-11.2 2.6M1461.3 685.5l-15.7-4.4M1464.8 676.4l-13-11M1474.4 672.1l-7.7-15M1482.8 669.9l.7-14.8M1492 671.5l6.9-10.2M1498.7 680.9l9.6-8.8M1500.3 687l11.7.3M1500.7 695l11.4 3.3" class="cls-33"/></g><path d="M1572.5 678c0 .8.6.8 1 2.1a8.5 8.5 0 0 1-.7 6.3c-1.3 2.4-2.8 2.5-2.7 3.5.3 1.8 5.3 3 9.1 2.7a16 16 0 0 0 8-3c1.5-1 2.4-1.5 2.4-2.3.1-1.7-2.9-2.1-5.6-5.7a20.3 20.3 0 0 1-2.5-4.5c-1.1-2.8-.8-3.8-1.7-4.3-2.1-1.1-7.5 2.4-7.3 5.2Z" class="cls-11"/><path d="M1593 688.4c.6-.1 2 .4 4 2.4 5.4 5.6 8.1 8.5 8.8 9.6 2.5 4.1 1.5 4.7 3.5 7.2 3 3.9 7.2 5.4 9.1 6.3 10.7 4.8 9 14.2 18.1 22.6 12.8 11.5 32.7 9.6 32.5 13.7 0 2.2-6.4 3.6-6 6 .3 1.9 4.4 1.9 5 4.2.4 1.7-1.7 4-3.9 5.2-5.3 2.9-14.2.4-17.9-1.7a8.6 8.6 0 0 0-4.8-1.2 7.9 7.9 0 0 0-2.7.7c-4.5 2.1-3.7 7.2-8.3 10.4a9.2 9.2 0 0 1-4.4 1.6 9.5 9.5 0 0 1-6.5-2 10 10 0 0 1-3-3.7c-1-2-.6-3.3-1-3.4-1.4-.4-3.3 10.4-6.3 10.9-4.8.8-13.4-23.8-17-48.8-2.7-17.7-3.4-39 .9-40Z" class="cls-34"/><path d="M1594.5 686.8c.5-.1 3.3 5.7 4.7 11.5.7 2.7.9 4.6 2.2 7.5a28.4 28.4 0 0 0 4.1 6.6c5 6.3 8.3 7.8 12.1 11.9 6.2 6.6 3.1 8.8 9.2 16.2 2.2 2.7 7.8 10 16.4 11.8 1.6.3 7 .8 10.4 1.5a93 93 0 0 1 6 1.6 29 29 0 0 1 2.8 1 17.8 17.8 0 0 1 3.4 2s-1.3-.7-1.2-.8a17.5 17.5 0 0 1 2 1.2 3.9 3.9 0 0 1 .8.7l.1.2a6 6 0 0 1 .4.7 4.7 4.7 0 0 1-1.4 3.8c-.3.4-1.5 1.5-4.8 2.2a23.5 23.5 0 0 1-15.2-1.8c-2-1-3.2-2-5.2-1.9a7 7 0 0 0-2.7.8c-4.4 2.1-3.6 7.2-8.3 10.3a10 10 0 0 1-4.3 1.7c-12.5 1-33.4-88.2-31.5-88.7Z" style="fill:#b22439"/><path d="M1577.8 819.3c1.3-4 11-7.6 16.4-5.3 2 1 3.1 3.4 5.2 8.3 1.2 2.6 1.3 3.9.6 5s-2 1.8-4.7 2.8a30.6 30.6 0 0 1-9.7 2.1c-3.1.2-5 .3-6.1-.7s-.2-2.2-.1-4.8c.2-4.4-2.3-5.2-1.6-7.4ZM1613.3 806.9c.3-4 8.6-9.6 14.2-8.3 2.1.4 3.7 2.6 6.8 7 1.7 2.3 2.1 3.4 1.7 4.7s-1.6 2.2-3.8 3.7a27.9 27.9 0 0 1-8.7 4c-2.9.8-4.7 1.3-5.9.5s-.7-2.2-1.2-4.7c-.8-4.3-3.3-4.6-3.1-6.9Z" class="cls-13"/><path d="M1580.5 830.1c-2.2-.3-3.8.9-6.1 2-6 3-8.7 1.2-11 4a9.6 9.6 0 0 0-1.8 3.8 7 7 0 0 0 0 2.8c1 2.9 11.3 2 19.1 1.1 21.4-2.4 23-4.5 23.6-5.7 2.4-4.8-1.4-12.6-4.7-13-1.6 0-1.9 1.7-6 4-2 1-6.4 3.5-10.4 2.1-1.3-.4-1.4-.8-2.7-1Z" style="fill:#fcf7f7"/><path d="M1619 815.7c-2.3.4-3.3 2-5.1 4-4.7 4.6-7.8 3.9-9 7.3a9.5 9.5 0 0 0-.4 4.1 7 7 0 0 0 1 2.7c2 2.4 11.3-1.8 18.3-5.2 19.3-9.2 20-11.7 20.2-13 .7-5.4-5.7-11.4-9-10.7-1.5.4-1.1 2.1-4.2 5.6-1.4 1.6-4.8 5.4-9 5.4-1.3 0-1.6-.4-2.8-.2Z" style="fill:#fff"/><path d="M1567.4 700c.2.2-.7 1.4-1.3 2a18.2 18.2 0 0 1-2.9 2.3l-2 1.6c-1.1 1-2 1.4-4.8 3.3l-4 2.7a42.2 42.2 0 0 1-5.4 2.7 87 87 0 0 1-11.6 3.3c-1.2 0-3.6-.3-3.7-1-.2-1.3 11-1.3 22.3-7.6 7.4-4 13-9.8 13.4-9.3Z" class="cls-38"/><path d="M1568.7 721.1s-3.8 50.3-1.4 66.8 5.1 33 5.1 33a3.3 3.3 0 0 0 .3 1.4c1.7 3.6 10.6 1.9 11 1.8a21 21 0 0 0 12.2-7.4 21.2 21.2 0 0 0 2.4-4 9.6 9.6 0 0 0 .9-2.5 10.5 10.5 0 0 0 0-3.2c-.8-6.1-1.2-9.2-1.6-10.4-1.2-4.8-4.5-23-9.5-51.9v-.5l.1.2a3285 3285 0 0 1 10 48.2 40.6 40.6 0 0 0 1.3 5.3l1.9 4.8a61.3 61.3 0 0 0 4.1 9c1 1.6 2 3 3.4 3.3a4 4 0 0 0 2.1-.1c4-1.2 10-7.4 13-10.2 6.2-5.7 9.3-5.9 9.6-9.1.1-2-1.1-3.9-3.5-7.6s-3-3.3-5.7-7.3a46.2 46.2 0 0 1-4.7-9l-1.2-3.3a117.9 117.9 0 0 0-4.7-12c-5.2-12-2-21.3-10-34.5a18 18 0 0 0-4.8-6.1c-10.1-7.4-27.6 3.6-30.3 5.4Z" style="fill:#55235e"/><path d="M1568.4 725c-.6 0-1 9.4-1.2 19.1a243.3 243.3 0 0 0-.9 26.1c.4 12.8-.9 8.7 1 19.7 1.5 8.7 3.6 19.8 5.5 32.3.1.9 3.5 2.2 4 2.3 1 .2 2.4.4 6-.3a27 27 0 0 0 6.8-2 19 19 0 0 0 9-10.2c.7-2 .9-3.9.6-4s-.7 4-3.6 7a12.6 12.6 0 0 1-10 3.5 10.6 10.6 0 0 1-6.1-2.5 9.7 9.7 0 0 1-3-4.6l-3-12.8a109 109 0 0 1-2.6-14.4c-.2-2.5 0-2.8-.1-10l-.5-22-.3-11.3c-.3-5-1-15.9-1.6-15.9ZM1585.8 724.9c-1 1.6 0 3.1.9 6.5.7 3 .1 2.7 1.3 10.6l.3 2.2a195 195 0 0 0 2.6 13.2l.8 3.8 1 5 1.2 5.4 1.3 6.4 2 9.4c1.1 5.9 1 6.5 1.9 9.2.3 1.2.1.3 2.1 5.7 1.6 4.2 2.1 5.7 3.3 7.8a22.2 22.2 0 0 0 2.5 3.7c.7.9 1 1.1 1.3 1.2 1.6 1 3.8 0 4.6-.4 1-.5 1.5-1 4.2-3.1l2.7-2.4c2.7-2.3 3.9-3.5 5.2-4.7 2-1.8 4.3-3 6.8-5.1a7.5 7.5 0 0 0 1-1 5.1 5.1 0 0 0 1.3-3.3 5 5 0 0 0-.3-1.5 6.3 6.3 0 0 0-.7-1.4c-.3-.5-1-1.4-1.1-1.3s.7 1.2.8 2.8a6.4 6.4 0 0 1-2 4.3 13.2 13.2 0 0 1-3 2.2l-4.8 3a43.1 43.1 0 0 1-5.8 3.2c-1.2.4-5.3 1.8-8.2-.2a7 7 0 0 1-2.3-2.9 52 52 0 0 1-4.3-12.2l-2-7.6c-1.5-5.6-2.1-8.5-3-12.4-3.4-13.8-4.6-14.7-6.2-23.9l-1.4-8.6-1.7-11.4c0-1.3.1-3.3-.6-3.5-.5-.2-1.3.6-1.7 1.3Z" class="cls-40"/><path d="M1573.4 677.4a4.5 4.5 0 0 0-.3.8 2.4 2.4 0 0 0 0 1.4 1.6 1.6 0 0 0 .5.7 7.8 7.8 0 0 0 2.2 1.4 7 7 0 0 0 1.9.5h3.3c1.8 0 2.7-.1 2.7-.5l-.3-.6-.8-1.4c-.7-1.1-1-2.6-1.7-4.2s-1.2-2.5-2-2.7c-2.4-.7-5.2 3.8-5.5 4.6Z" style="fill:#ce725f"/><path d="M1572.5 686.8a12 12 0 0 1-3.3 2 12.1 12.1 0 0 1-1.7.5 37.5 37.5 0 0 0-3.6 1.4 33.5 33.5 0 0 0-7.2 5c-4 3.3-4.9 4.4-9.3 8.1a32.2 32.2 0 0 1-5.4 3.9 27.6 27.6 0 0 1-4.9 2.2 20.8 20.8 0 0 1-9.4 1.3c-1.3-.2-2.3-.5-2.8 0-.7 1 1 3.7 1.1 3.9a9.2 9.2 0 0 0 .8 1c2.5 2.7 12.1.1 12.1.1 4.3-1 10.4-2.7 16.1-6.8 2.4-1.7 5-3.2 7.3-5 1.8-1.6 3.2-2.9 4-2.5s.7 1.7.8 3.9l.2 2 .3 2a17 17 0 0 1 0 3.4c-.2 5.9-1 8.2.4 11.3a2.6 2.6 0 0 0 .4.6c1.6 2 4.5 2 9 2.2s6-.6 13.5-1.9c9.1-1.5 13-1.5 13.7-3.5.2-.8-.3-1-2-5.3l-1.7-4.8c-.8-2.6-.9-3.5-2-8.3l-1.7-6.5c-1.3-5.8-.7-7-2.2-8.7-1.7-1.8-4.7-3-6.3-2-.6.3-.6.7-1.2 1.4-1.3 1.4-3.1 1.7-6.5 2.3-4.4.7-6.7 1-7.8-.3a3.6 3.6 0 0 1-.7-3Z" class="cls-42"/><path d="M1567 703.5v2c.5 8.6 1 9.6.5 12.3a11.2 11.2 0 0 0-.4 3 6.3 6.3 0 0 0 1.2 4.2 6 6 0 0 0 2.7 1.8 15.7 15.7 0 0 0 3 .3l2.7.2a26.9 26.9 0 0 0 3.2 0c.9 0 2.9-.2 2.9-.4s-1.2-.2-5.5-.9a12.3 12.3 0 0 1-2.7-.6 16.9 16.9 0 0 1-1.8-.8 9.2 9.2 0 0 1-2.1-1.2 4.4 4.4 0 0 1-1.2-2.8c-.1-1 .3-1.4.4-3.1a16.5 16.5 0 0 0 0-2.6 32.4 32.4 0 0 0-2.8-11.4Z" class="cls-38"/><path d="M1526.7 711.6a7 7 0 0 0-2-.2h-.5a8.6 8.6 0 0 1-1 0 3.5 3.5 0 0 0-1-.1 1 1 0 0 0-.7.3.9.9 0 0 0-.2.5c0 .6.2 1.4 1.1 2.8a4.7 4.7 0 0 0 .5.8c.9.8 1.8.4 5.2.5h.9c.7-.7-.3-3.7-2.3-4.6Z" class="cls-26"/><path d="M1550.5 717.2a7 7 0 0 0-2-.2h-.5a8.4 8.4 0 0 1-1 0 3.5 3.5 0 0 0-1-.1 1 1 0 0 0-.7.3.9.9 0 0 0-.2.5c0 .6.2 1.4 1.1 2.8a6 6 0 0 0 .5.8c.8.8 1.8.4 5.2.5h.8c.8-.7-.2-3.7-2.2-4.6Z" style="fill:#ed9d9d"/><path d="M1522.7 711.5a8 8 0 0 0-3.2-3.5 8.4 8.4 0 0 0-3.8-.8c-1-.1-2-.2-2.4.4a1 1 0 0 0 0 1 1.4 1.4 0 0 0 .9.6l2.6.6a10 10 0 0 1 1.5.5s-.4 0-1.4-.3-1.3-.2-1.6-.3a16.4 16.4 0 0 1-2-.6 13.2 13.2 0 0 0-2.3-.5 17.6 17.6 0 0 0-4-.3 9.3 9.3 0 0 0-1.8.3 2 2 0 0 0-1.3.8v.3c0 .5 1.8.6 3.7.6h.1l2.2.4a19.1 19.1 0 0 1 2.7.5 5.6 5.6 0 0 1-1.4 0h-.1l-1.2-.2-1-.1h-.7l-.7-.1h-2a17.1 17.1 0 0 0-2 0c-1.2.2-2.9.6-2.9 1.1s1 .6 1.2.7a4.9 4.9 0 0 0 1.3.1l1.9.1 3 .2c1.4 0 1.7 0 2.6.2a14.2 14.2 0 0 1 1.8.2 16.8 16.8 0 0 1-2 0h-5.9c-1.4-.2-2.2-.5-2.5-.2s0 .7.1 1c.3.5 1 .7 2.3.9a25.5 25.5 0 0 0 3.3.2l4.5-.1a17 17 0 0 1-2.7.2 24.1 24.1 0 0 1-3.5 0c-.6 0-1.3-.2-1.5 0s.1.6.2.7a1.5 1.5 0 0 0 1 .5 23.8 23.8 0 0 0 3.7.4l3.4.4 1.4.1c2.3.3 4.2.6 6 0 1.6-.4 3-.9 3.4-2s0-2.5-.9-4ZM1547.5 716.7a7.9 7.9 0 0 0-3.2-3.5 8.4 8.4 0 0 0-3.8-.8c-1 0-2-.1-2.4.5a1 1 0 0 0 0 1 1.4 1.4 0 0 0 1 .5l2.6.6a9.1 9.1 0 0 1 1.5.5 12.4 12.4 0 0 1-1.5-.3l-1.6-.2a17.1 17.1 0 0 1-2-.6 13.7 13.7 0 0 0-2.2-.5 18 18 0 0 0-4-.3 10 10 0 0 0-1.8.4 2 2 0 0 0-1.3.7c-.1.2-.2.3-.1.4.1.5 1.8.5 3.7.6h.2a20 20 0 0 1 2.1.2 19.3 19.3 0 0 1 2.8.6 5.4 5.4 0 0 1-1.4-.1h-.2l-1.2-.2h-1.6l-.8-.1h-1.9a16.6 16.6 0 0 0-2 0c-1.2.2-2.9.7-2.9 1.1s1 .6 1.1.7a4.9 4.9 0 0 0 1.4.1l1.9.1 3 .2 2.5.1a13.7 13.7 0 0 1 1.9.2 17.3 17.3 0 0 1-2 0h-5.8c-1.5-.1-2.2-.4-2.5 0s0 .6 0 .8c.4.6 1 .8 2.3 1a24.2 24.2 0 0 0 3.3.1l4.5-.1a17.8 17.8 0 0 1-2.7.3 26.3 26.3 0 0 1-3.5 0c-.5-.1-1.2-.3-1.4 0s0 .5.1.6a1.6 1.6 0 0 0 1 .6c1.4.3 2.4.2 3.6.4a19 19 0 0 1 2.6.7l1.1.3a10.6 10.6 0 0 0 7.3-.7c2-.8 3-1.2 3.4-2.2.5-1-.2-2.2-1-3.7Z" class="cls-26"/><path d="M1570.8 691a3.4 3.4 0 0 1-1-1.2 2.2 2.2 0 0 1-.2-1 1.3 1.3 0 0 1 .3-1 .7.7 0 0 1 .3-.2c.3-.1.5.1.8 0s.3-.3.6-.5c0 0 .6-.4.9-.2s0 .3 0 1l.2.7a2.5 2.5 0 0 0 .1.4 2 2 0 0 0 .4.7 2.8 2.8 0 0 0 1.2.7c.7.2 1 0 2 .2.4 0 .6 0 .7.2 0 .4-2.7 1.9-4.9 1a5.9 5.9 0 0 1-1.4-.8ZM1589.8 688.7a3.1 3.1 0 0 0 .6-1.4 2.6 2.6 0 0 0 0-1 1.5 1.5 0 0 0-.5-.9.8.8 0 0 0-.3-.1l-.9.2c-.4 0-.3-.2-.7-.4-.2 0-.7-.1-.8 0s0 .3.2 1a3.5 3.5 0 0 1 0 .8 3.2 3.2 0 0 1 0 .5 3.4 3.4 0 0 1-.2.7 2.7 2.7 0 0 1-.8 1c-1.2.9-2.8.7-2.8.8s3 1.3 5 0a5.2 5.2 0 0 0 1.2-1.2Z" class="cls-34"/><path d="M1575.7 690.7a.7.7 0 0 0-.4-.2.8.8 0 0 0-.6.2.6.6 0 0 0-.2.5.6.6 0 0 0 .2.5.8.8 0 0 0 .8 0 .7.7 0 0 0 .4-.6.6.6 0 0 0-.2-.4Z" style="fill:#e2ce0e"/><path d="M1574.8 691c0-.3.4-.3.4-.3.2-.1.6 0 .7.2a.5.5 0 0 1-.2.6.6.6 0 0 1-.9-.2.4.4 0 0 1 0-.3Z" style="fill:#cc6723"/><path d="M1590.2 688.3a83.5 83.5 0 0 0-11.6 8.6c-5.2 4.5-5.8 6-11.8 10.7 0 0-7.6 6.1-13.1 8l-3.1 1.2c-.7.2-.9.2-1 .4-.9 1 .9 4.8 3.6 5.3.8.1 1.3 0 4.2-1.2 4.4-1.6 3.8-1.2 5.1-1.8a52.8 52.8 0 0 0 8-4.2c4.8-3 8.3-5.5 11.4-7.8 2.9-2 1.1-1 6.7-5.2a31.9 31.9 0 0 0 4.4-3.8c2.2-2.3 2.7-3.7 2.9-4.6a4.8 4.8 0 0 0-.3-3.4 4.5 4.5 0 0 0-1-1.3 5.4 5.4 0 0 0-1-.5 6 6 0 0 0-3.4-.4Z" class="cls-38"/><path d="M1590 685.4a42.7 42.7 0 0 0-4.8 2.9 52.6 52.6 0 0 0-7.4 6.2l-5.3 5.5c-3 3.1-4.8 5-6.2 6.1a47.7 47.7 0 0 1-13.3 8.5c-1 .4-2.1.9-3.2 1.2l-1 .4c-1 1.2.9 5.2 3.6 5.8.9.2 1.4 0 4.4-1.2 4.5-1.7 3.8-1.3 5.2-2a53 53 0 0 0 8.1-4.5c3-1.8 2.9-2 11.6-8.3l7-5.3a22.3 22.3 0 0 0 4.6-4.2 11 11 0 0 0 2.5-5 6 6 0 0 0-.3-3.7 5 5 0 0 0-1-1.4 5.5 5.5 0 0 0-1-.6 5.9 5.9 0 0 0-3.4-.4Z" class="cls-42"/><path d="M1565 660.6c-1.9 2.1-1.8 4.9-1.8 6.6a12.2 12.2 0 0 0 2.2 6.8c.5.6 4.4 6 9.7 5.1 4-.6 6.2-4.5 7-5.8a13.1 13.1 0 0 0 1.5-5.2 17.1 17.1 0 0 1-.4-2 18.7 18.7 0 0 1-.3-2.5c-.1-2.2-4-4.8-8-5.5-.8-.1-6.7-1.2-9.9 2.5Z" class="cls-13"/><path d="M1559.3 662.5a16 16 0 0 0 4.2-2.9c1.4-1.5 1.2-2 2.8-3.7a10.1 10.1 0 0 1 3.4-2.8c3.3-1.3 8 2.7 10.4 5.4 3.1 3.7 5.9 10 3.5 14.5-1 2-3 3.5-3.3 3.3s1.4-2 1.2-4.6c-.1-1.4-.8-2.6-.2-3.2.4-.3.7-.1 1.1-.5a2.4 2.4 0 0 0 .2-3.2c-.4-.5-1.1-1-1.7-.8s-.3.9-.7 1c-.7.2-2.5-1.7-3.2-3.6 0-.2-.2-.6-.5-.7s-.6.9-.8 1.2c-.7 1.8-3.4 2.6-5.8 3.3a17.6 17.6 0 0 1-7 .8c-3-.3-6.3-1.4-6.3-2.2 0-.5 1-.5 2.8-1.3Z" style="fill:#332020"/></svg>
